<?xml version="1.0" encoding="UTF-8"?>
<svg version="1.1" xmlns="http://www.w3.org/2000/svg" width="680" height="680">
<path d="M0 0 C66 0 132 0 200 0 C200 13.2 200 26.4 200 40 C206.6 40 213.2 40 220 40 C220 76.3 220 112.6 220 150 C206.8 150 193.6 150 180 150 C180 163.2 180 176.4 180 190 C166.8 190 153.6 190 140 190 C140 216.4 140 242.8 140 270 C126.8 270 113.6 270 100 270 C100 279.9 100 289.8 100 300 C93.4 300 86.8 300 80 300 C80 316.5 80 333 80 350 C73.4 350 66.8 350 60 350 C60 363.2 60 376.4 60 390 C53.4 390 46.8 390 40 390 C40 403.2 40 416.4 40 430 C46.6 430 53.2 430 60 430 C60 443.2 60 456.4 60 470 C33.6 470 7.2 470 -20 470 C-20 450.2 -20 430.4 -20 410 C-26.6 410 -33.2 410 -40 410 C-40 416.6 -40 423.2 -40 430 C-59.8 430 -79.6 430 -100 430 C-100 423.4 -100 416.8 -100 410 C-106.6 410 -113.2 410 -120 410 C-120 403.4 -120 396.8 -120 390 C-126.6 390 -133.2 390 -140 390 C-140 376.8 -140 363.6 -140 350 C-146.6 350 -153.2 350 -160 350 C-160 343.4 -160 336.8 -160 330 C-166.6 330 -173.2 330 -180 330 C-180 323.4 -180 316.8 -180 310 C-186.6 310 -193.2 310 -200 310 C-200 303.4 -200 296.8 -200 290 C-206.6 290 -213.2 290 -220 290 C-220 250.4 -220 210.8 -220 170 C-213.4 170 -206.8 170 -200 170 C-200 163.4 -200 156.8 -200 150 C-186.8 150 -173.6 150 -160 150 C-160 169.8 -160 189.6 -160 210 C-140.2 210 -120.4 210 -100 210 C-100 203.4 -100 196.8 -100 190 C-90.1 190 -80.2 190 -70 190 C-70 183.4 -70 176.8 -70 170 C-60.1 170 -50.2 170 -40 170 C-40 163.4 -40 156.8 -40 150 C-33.4 150 -26.8 150 -20 150 C-20 107.1 -20 64.2 -20 20 C-13.4 20 -6.8 20 0 20 C0 13.4 0 6.8 0 0 Z " fill="#FFFFFF" transform="translate(350,110)"/>
<path d="M0 0 C66 0 132 0 200 0 C200 13.2 200 26.4 200 40 C193.4 40 186.8 40 180 40 C180 33.4 180 26.8 180 20 C127.2 20 74.4 20 20 20 C20 26.6 20 33.2 20 40 C13.4 40 6.8 40 0 40 C0 82.9 0 125.8 0 170 C-6.6 170 -13.2 170 -20 170 C-20 176.6 -20 183.2 -20 190 C-29.9 190 -39.8 190 -50 190 C-50 196.6 -50 203.2 -50 210 C-59.9 210 -69.8 210 -80 210 C-80 216.6 -80 223.2 -80 230 C-86.6 230 -93.2 230 -100 230 C-100 236.6 -100 243.2 -100 250 C-113.2 250 -126.4 250 -140 250 C-140 243.4 -140 236.8 -140 230 C-146.6 230 -153.2 230 -160 230 C-160 223.4 -160 216.8 -160 210 C-140.2 210 -120.4 210 -100 210 C-100 203.4 -100 196.8 -100 190 C-90.1 190 -80.2 190 -70 190 C-70 183.4 -70 176.8 -70 170 C-60.1 170 -50.2 170 -40 170 C-40 163.4 -40 156.8 -40 150 C-33.4 150 -26.8 150 -20 150 C-20 107.1 -20 64.2 -20 20 C-13.4 20 -6.8 20 0 20 C0 13.4 0 6.8 0 0 Z " fill="#000000" transform="translate(350,110)"/>
<path d="M0 0 C6.6 0 13.2 0 20 0 C20 36.3 20 72.6 20 110 C6.8 110 -6.4 110 -20 110 C-20 123.2 -20 136.4 -20 150 C-33.2 150 -46.4 150 -60 150 C-60 176.4 -60 202.8 -60 230 C-73.2 230 -86.4 230 -100 230 C-100 239.9 -100 249.8 -100 260 C-106.6 260 -113.2 260 -120 260 C-120 236.9 -120 213.8 -120 190 C-113.4 190 -106.8 190 -100 190 C-100 196.6 -100 203.2 -100 210 C-93.4 210 -86.8 210 -80 210 C-80 196.8 -80 183.6 -80 170 C-93.2 170 -106.4 170 -120 170 C-120 156.8 -120 143.6 -120 130 C-93.6 130 -67.2 130 -40 130 C-40 123.4 -40 116.8 -40 110 C-59.8 110 -79.6 110 -100 110 C-100 103.4 -100 96.8 -100 90 C-67 90 -34 90 0 90 C0 60.3 0 30.6 0 0 Z " fill="#000000" transform="translate(550,150)"/>
<path d="M0 0 C13.2 0 26.4 0 40 0 C40 6.6 40 13.2 40 20 C46.6 20 53.2 20 60 20 C60 39.8 60 59.6 60 80 C73.2 80 86.4 80 100 80 C100 73.4 100 66.8 100 60 C106.6 60 113.2 60 120 60 C120 73.2 120 86.4 120 100 C93.6 100 67.2 100 40 100 C40 80.2 40 60.4 40 40 C33.4 40 26.8 40 20 40 C20 33.4 20 26.8 20 20 C13.4 20 6.8 20 0 20 C0 13.4 0 6.8 0 0 Z " fill="#000000" transform="translate(290,480)"/>
<path d="M0 0 C6.6 0 13.2 0 20 0 C20 16.5 20 33 20 50 C13.4 50 6.8 50 0 50 C0 63.2 0 76.4 0 90 C-6.6 90 -13.2 90 -20 90 C-20 103.2 -20 116.4 -20 130 C-26.6 130 -33.2 130 -40 130 C-40 103.6 -40 77.2 -40 50 C-33.4 50 -26.8 50 -20 50 C-20 43.4 -20 36.8 -20 30 C-13.4 30 -6.8 30 0 30 C0 20.1 0 10.2 0 0 Z " fill="#000000" transform="translate(410,410)"/>
<path d="M0 0 C6.6 0 13.2 0 20 0 C20 6.6 20 13.2 20 20 C26.6 20 33.2 20 40 20 C40 26.6 40 33.2 40 40 C46.6 40 53.2 40 60 40 C60 46.6 60 53.2 60 60 C73.2 60 86.4 60 100 60 C100 66.6 100 73.2 100 80 C80.2 80 60.4 80 40 80 C40 73.4 40 66.8 40 60 C33.4 60 26.8 60 20 60 C20 53.4 20 46.8 20 40 C13.4 40 6.8 40 0 40 C0 26.8 0 13.6 0 0 Z " fill="#000000" transform="translate(210,460)"/>
<path d="M0 0 C6.6 0 13.2 0 20 0 C20 39.6 20 79.2 20 120 C13.4 120 6.8 120 0 120 C0 80.4 0 40.8 0 0 Z " fill="#000000" transform="translate(130,280)"/>
<path d="M0 0 C13.2 0 26.4 0 40 0 C40 19.8 40 39.6 40 60 C33.4 60 26.8 60 20 60 C20 46.8 20 33.6 20 20 C13.4 20 6.8 20 0 20 C0 13.4 0 6.8 0 0 Z " fill="#000000" transform="translate(150,260)"/>
<path d="M0 0 C6.6 0 13.2 0 20 0 C20 6.6 20 13.2 20 20 C13.4 20 6.8 20 0 20 C0 13.4 0 6.8 0 0 Z " fill="#000000" transform="translate(190,440)"/>
<path d="M0 0 C6.6 0 13.2 0 20 0 C20 6.6 20 13.2 20 20 C13.4 20 6.8 20 0 20 C0 13.4 0 6.8 0 0 Z " fill="#000000" transform="translate(170,420)"/>
<path d="M0 0 C6.6 0 13.2 0 20 0 C20 6.6 20 13.2 20 20 C13.4 20 6.8 20 0 20 C0 13.4 0 6.8 0 0 Z " fill="#000000" transform="translate(150,400)"/>
<path d="M0 0 C6.6 0 13.2 0 20 0 C20 6.6 20 13.2 20 20 C13.4 20 6.8 20 0 20 C0 13.4 0 6.8 0 0 Z " fill="#000000" transform="translate(390,160)"/>
</svg>
