<?xml version="1.0" encoding="UTF-8"?>
<svg version="1.1" xmlns="http://www.w3.org/2000/svg" width="192" height="192">
<path d="M0 0 C19.8 0 39.6 0 60 0 C60 3.96 60 7.92 60 12 C61.98 12 63.96 12 66 12 C66 21.9 66 31.8 66 42 C62.04 42 58.08 42 54 42 C54 45.96 54 49.92 54 54 C50.04 54 46.08 54 42 54 C42 61.92 42 69.84 42 78 C38.04 78 34.08 78 30 78 C30 79.98 30 81.96 30 84 C28.02 84 26.04 84 24 84 C24 89.94 24 95.88 24 102 C22.02 102 20.04 102 18 102 C18 105.96 18 109.92 18 114 C16.02 114 14.04 114 12 114 C12 115.98 12 117.96 12 120 C13.98 120 15.96 120 18 120 C18 123.96 18 127.92 18 132 C12.06 132 6.12 132 0 132 C0 126.06 0 120.12 0 114 C-1.98 114 -3.96 114 -6 114 C-6 115.98 -6 117.96 -6 120 C-11.94 120 -17.88 120 -24 120 C-24 118.02 -24 116.04 -24 114 C-27.96 114 -31.92 114 -36 114 C-36 110.04 -36 106.08 -36 102 C-37.98 102 -39.96 102 -42 102 C-42 100.02 -42 98.04 -42 96 C-43.98 96 -45.96 96 -48 96 C-48 94.02 -48 92.04 -48 90 C-49.98 90 -51.96 90 -54 90 C-54 88.02 -54 86.04 -54 84 C-55.98 84 -57.96 84 -60 84 C-60 72.12 -60 60.24 -60 48 C-58.02 48 -56.04 48 -54 48 C-54 46.02 -54 44.04 -54 42 C-50.04 42 -46.08 42 -42 42 C-42 47.94 -42 53.88 -42 60 C-36.06 60 -30.12 60 -24 60 C-24 58.02 -24 56.04 -24 54 C-22.02 54 -20.04 54 -18 54 C-18 52.02 -18 50.04 -18 48 C-14.04 48 -10.08 48 -6 48 C-6 46.02 -6 44.04 -6 42 C-4.02 42 -2.04 42 0 42 C0 28.14 0 14.28 0 0 Z " fill="#FFFFFF" transform="translate(96,30)"/>
<path d="M0 0 C1.98 0 3.96 0 6 0 C6 9.9 6 19.8 6 30 C2.04 30 -1.92 30 -6 30 C-6 33.96 -6 37.92 -6 42 C-9.96 42 -13.92 42 -18 42 C-18 49.92 -18 57.84 -18 66 C-21.96 66 -25.92 66 -30 66 C-30 67.98 -30 69.96 -30 72 C-31.98 72 -33.96 72 -36 72 C-36 66.06 -36 60.12 -36 54 C-34.02 54 -32.04 54 -30 54 C-30 55.98 -30 57.96 -30 60 C-28.02 60 -26.04 60 -24 60 C-24 56.04 -24 52.08 -24 48 C-27.96 48 -31.92 48 -36 48 C-36 44.04 -36 40.08 -36 36 C-28.08 36 -20.16 36 -12 36 C-12 34.02 -12 32.04 -12 30 C-17.94 30 -23.88 30 -30 30 C-30 28.02 -30 26.04 -30 24 C-20.1 24 -10.2 24 0 24 C0 16.08 0 8.16 0 0 Z " fill="#000000" transform="translate(156,42)"/>
<path d="M0 0 C1.98 0 3.96 0 6 0 C6 3.96 6 7.92 6 12 C2.04 12 -1.92 12 -6 12 C-6 13.98 -6 15.96 -6 18 C-7.98 18 -9.96 18 -12 18 C-12 19.98 -12 21.96 -12 24 C-13.98 24 -15.96 24 -18 24 C-18 25.98 -18 27.96 -18 30 C-21.96 30 -25.92 30 -30 30 C-30 28.02 -30 26.04 -30 24 C-31.98 24 -33.96 24 -36 24 C-36 22.02 -36 20.04 -36 18 C-30.06 18 -24.12 18 -18 18 C-18 16.02 -18 14.04 -18 12 C-16.02 12 -14.04 12 -12 12 C-12 10.02 -12 8.04 -12 6 C-8.04 6 -4.08 6 0 6 C0 4.02 0 2.04 0 0 Z " fill="#000000" transform="translate(90,72)"/>
<path d="M0 0 C19.8 0 39.6 0 60 0 C60 3.96 60 7.92 60 12 C58.02 12 56.04 12 54 12 C54 10.02 54 8.04 54 6 C38.16 6 22.32 6 6 6 C6 7.98 6 9.96 6 12 C4.02 12 2.04 12 0 12 C0 8.04 0 4.08 0 0 Z " fill="#000000" transform="translate(96,30)"/>
<path d="M0 0 C1.98 0 3.96 0 6 0 C6 5.94 6 11.88 6 18 C4.02 18 2.04 18 0 18 C0 21.96 0 25.92 0 30 C-1.98 30 -3.96 30 -6 30 C-6 31.98 -6 33.96 -6 36 C-7.98 36 -9.96 36 -12 36 C-12 30.06 -12 24.12 -12 18 C-10.02 18 -8.04 18 -6 18 C-6 16.02 -6 14.04 -6 12 C-4.02 12 -2.04 12 0 12 C0 8.04 0 4.08 0 0 Z " fill="#000000" transform="translate(114,114)"/>
<path d="M0 0 C1.98 0 3.96 0 6 0 C6 11.88 6 23.76 6 36 C4.02 36 2.04 36 0 36 C0 24.12 0 12.24 0 0 Z " fill="#000000" transform="translate(36,78)"/>
<path d="M0 0 C3.96 0 7.92 0 12 0 C12 1.98 12 3.96 12 6 C10.02 6 8.04 6 6 6 C6 7.98 6 9.96 6 12 C0.06 12 -5.88 12 -12 12 C-12 10.02 -12 8.04 -12 6 C-8.04 6 -4.08 6 0 6 C0 4.02 0 2.04 0 0 Z " fill="#000000" transform="translate(84,138)"/>
<path d="M0 0 C1.98 0 3.96 0 6 0 C6 3.96 6 7.92 6 12 C0.06 12 -5.88 12 -12 12 C-12 10.02 -12 8.04 -12 6 C-8.04 6 -4.08 6 0 6 C0 4.02 0 2.04 0 0 Z " fill="#000000" transform="translate(108,150)"/>
<path d="M0 0 C3.96 0 7.92 0 12 0 C12 5.94 12 11.88 12 18 C10.02 18 8.04 18 6 18 C6 14.04 6 10.08 6 6 C4.02 6 2.04 6 0 6 C0 4.02 0 2.04 0 0 Z " fill="#000000" transform="translate(42,72)"/>
<path d="M0 0 C1.98 0 3.96 0 6 0 C6 1.98 6 3.96 6 6 C7.98 6 9.96 6 12 6 C12 7.98 12 9.96 12 12 C8.04 12 4.08 12 0 12 C0 8.04 0 4.08 0 0 Z " fill="#000000" transform="translate(60,132)"/>
<path d="M0 0 C1.98 0 3.96 0 6 0 C6 1.98 6 3.96 6 6 C4.02 6 2.04 6 0 6 C0 4.02 0 2.04 0 0 Z " fill="#000000" transform="translate(54,126)"/>
<path d="M0 0 C1.98 0 3.96 0 6 0 C6 1.98 6 3.96 6 6 C4.02 6 2.04 6 0 6 C0 4.02 0 2.04 0 0 Z " fill="#000000" transform="translate(48,120)"/>
<path d="M0 0 C1.98 0 3.96 0 6 0 C6 1.98 6 3.96 6 6 C4.02 6 2.04 6 0 6 C0 4.02 0 2.04 0 0 Z " fill="#000000" transform="translate(42,114)"/>
</svg>
