<?xml version="1.0" encoding="UTF-8"?>
<svg version="1.1" xmlns="http://www.w3.org/2000/svg" width="32" height="32">
<path d="M0 0 C1.51013672 -0.04350586 1.51013672 -0.04350586 3.05078125 -0.08789062 C10.43444397 -0.15162742 10.43444397 -0.15162742 13.7578125 2.08203125 C16.43832317 6.45509295 16.28593587 10.3478136 16.3125 15.4375 C16.32667969 16.67757813 16.34085938 17.91765625 16.35546875 19.1953125 C16.125 22.3125 16.125 22.3125 14.125 24.3125 C8.69934347 24.11154976 6.83627341 23.02377341 3.125 19.3125 C0.21117271 18.56189151 0.21117271 18.56189151 -2.875 19.3125 C-4.8917658 20.95883943 -6.89239574 22.62517723 -8.875 24.3125 C-11.625 24.75 -11.625 24.75 -13.875 24.3125 C-16.69996717 21.48753283 -16.17494045 19.56451123 -16.1875 15.625 C-16.1130128 10.04418961 -15.76508517 6.09225624 -12.875 1.3125 C-9.00437878 -0.62281061 -4.25777058 0.04057596 0 0 Z M-7.875 6.3125 C-7.875 6.9725 -7.875 7.6325 -7.875 8.3125 C-8.865 8.6425 -9.855 8.9725 -10.875 9.3125 C-9.885 9.6425 -8.895 9.9725 -7.875 10.3125 C-7.875 11.3025 -7.875 12.2925 -7.875 13.3125 C-7.215 13.3125 -6.555 13.3125 -5.875 13.3125 C-5.875 12.3225 -5.875 11.3325 -5.875 10.3125 C-4.885 9.9825 -3.895 9.6525 -2.875 9.3125 C-3.865 8.9825 -4.855 8.6525 -5.875 8.3125 C-5.875 7.6525 -5.875 6.9925 -5.875 6.3125 C-6.535 6.3125 -7.195 6.3125 -7.875 6.3125 Z M8.125 6.3125 C8.785 6.9725 9.445 7.6325 10.125 8.3125 C10.455 7.6525 10.785 6.9925 11.125 6.3125 C10.135 6.3125 9.145 6.3125 8.125 6.3125 Z M6.125 10.3125 C6.125 11.3025 6.125 12.2925 6.125 13.3125 C6.785 12.6525 7.445 11.9925 8.125 11.3125 C7.465 10.9825 6.805 10.6525 6.125 10.3125 Z " fill="#FFFFFF" transform="translate(15.875,3.6875)"/>
</svg>
