<?xml version="1.0" encoding="UTF-8"?>
<svg version="1.1" xmlns="http://www.w3.org/2000/svg" width="32" height="32">
<path d="M0 0 C3.3 0 6.6 0 10 0 C10.33 2.31 10.66 4.62 11 7 C10.34 7 9.68 7 9 7 C9 7.66 9 8.32 9 9 C8.34 9 7.68 9 7 9 C7 10.32 7 11.64 7 13 C6.01 13.495 6.01 13.495 5 14 C3.47998351 17.89415629 3.47998351 17.89415629 3 22 C2.01 22 1.02 22 0 22 C-0.33 21.34 -0.66 20.68 -1 20 C-1.763125 19.896875 -2.52625 19.79375 -3.3125 19.6875 C-7.02120534 18.73876142 -8.05398652 17.2433558 -10 14 C-10.25 10.6875 -10.25 10.6875 -10 8 C-9.01 7.67 -8.02 7.34 -7 7 C-7 7.99 -7 8.98 -7 10 C-3.93449408 9.01041003 -3.93449408 9.01041003 -1 7 C-0.02126462 3.40614946 -0.02126462 3.40614946 0 0 Z " fill="#A8A8A8" transform="translate(16,5)"/>
</svg>
